<svg xmlns="http://www.w3.org/2000/svg" xmlns:xlink="http://www.w3.org/1999/xlink" xmlns:lucid="lucid" width="1523" height="1031.5"><g transform="translate(-1098.5 -1520)" lucid:page-tab-id="5xUyyteA.dpF"><path d="M0 0h4067.6v2627.7H0z" fill="#fff"/><path d="M1800 1675h180v40h-180z" stroke="#333" stroke-width="3" fill-opacity="0"/><use xlink:href="#a" transform="matrix(1,0,0,1,1820,1675) translate(36.525 23.6)"/><path d="M1360 1675h180v40h-180z" stroke="#333" stroke-width="3" fill-opacity="0"/><use xlink:href="#b" transform="matrix(1,0,0,1,1380,1675) translate(35.525 23.6)"/><path d="M1800 2255h180v40h-180z" stroke="#333" stroke-width="3" fill-opacity="0"/><use xlink:href="#c" transform="matrix(1,0,0,1,1820,2255) translate(35.725 23.6)"/><path d="M1800 2510h180v40h-180z" stroke="#333" stroke-width="3" fill-opacity="0"/><use xlink:href="#d" transform="matrix(1,0,0,1,1820,2510) translate(32.099999999999994 23.6)"/><path d="M1460 1545h180v40h-180z" stroke="#333" stroke-width="3" fill-opacity="0"/><use xlink:href="#e" transform="matrix(1,0,0,1,1480,1545) translate(39.9 23.6)"/><path d="M1100 1795h180v40h-180z" stroke="#333" stroke-width="3" fill-opacity="0"/><use xlink:href="#f" transform="matrix(1,0,0,1,1120,1795) translate(34.05 23.6)"/><path d="M1884.77 2117.94a10.67 10.67 0 0 1 10.46 0l69.54 39.12a3.38 3.38 0 0 1 0 5.88l-69.54 39.12a10.67 10.67 0 0 1-10.46 0l-69.54-39.12a3.38 3.38 0 0 1 0-5.88z" stroke="#000" stroke-width="3" fill="#fff"/><use xlink:href="#g" transform="matrix(1,0,0,1,1850,2137.5) translate(10.2 26.1)"/><use xlink:href="#h" transform="matrix(1,0,0,1,1850,2137.5) translate(49.8 26.1)"/><path d="M1680 1955h180v40h-180z" stroke="#333" stroke-width="3" fill-opacity="0"/><use xlink:href="#i" transform="matrix(1,0,0,1,1700,1955) translate(43.525 23.6)"/><path d="M1920 1955h180v40h-180z" stroke="#333" stroke-width="3" fill-opacity="0"/><use xlink:href="#j" transform="matrix(1,0,0,1,1940,1955) translate(36.574999999999996 23.6)"/><path d="M1890 1717v100.12" stroke="#000" fill="none"/><path d="M1890.47 1717h-.94v-.5h.94z" stroke="#000" stroke-width=".05"/><path d="M1890 1831.88l-4.63-14.26h9.27z" stroke="#000"/><path d="M1859.74 1875H1782a12 12 0 0 0-12 12v50.12" stroke="#000" fill="none"/><path d="M1860.56 1875.47h-.84v-.94h.2z" stroke="#000" stroke-width=".05"/><path d="M1770 1951.88l-4.63-14.26h9.27z" stroke="#000"/><path d="M1919.38 1875l78.62.02a12 12 0 0 1 12 12v50.1" stroke="#000" fill="none"/><path d="M1919.4 1874.53v.94h-.85l.65-.94z" stroke="#000" stroke-width=".05"/><path d="M2010 1951.88l-4.63-14.26h9.27z" stroke="#000"/><path d="M1770 1997v46.8a12 12 0 0 0 12 11.98h96a12 12 0 0 1 12 12v30.9" stroke="#000" fill="none"/><path d="M1770.47 1997h-.94v-.5h.94z" stroke="#000" stroke-width=".05"/><path d="M1890 2113.45l-4.63-14.26h9.27z" stroke="#000"/><path d="M1890 2205.43v31.7" stroke="#000" fill="none"/><path d="M1890 2204.93l.47-.02v.54h-.94v-.53z" stroke="#000" stroke-width=".05"/><path d="M1890 2251.88l-4.63-14.26h9.27z" stroke="#000"/><path d="M2010 1997v46.8a12 12 0 0 1-12 11.98h-96a12 12 0 0 0-12 12v30.9" stroke="#000" fill="none"/><path d="M2010.47 1997h-.94v-.5h.94z" stroke="#000" stroke-width=".05"/><path d="M1890 2113.45l-4.63-14.26h9.27z" stroke="#000"/><path d="M1890 2205.43v31.7" stroke="#000" fill="none"/><path d="M1890 2204.93l.47-.02v.54h-.94v-.53z" stroke="#000" stroke-width=".05"/><path d="M1890 2251.88l-4.63-14.26h9.27z" stroke="#000"/><path d="M1664.77 1652.94a10.67 10.67 0 0 1 10.46 0l69.54 39.12a3.38 3.38 0 0 1 0 5.88l-69.54 39.12a10.67 10.67 0 0 1-10.46 0l-69.54-39.12a3.38 3.38 0 0 1 0-5.88z" stroke="#000" stroke-width="3" fill="#fff"/><use xlink:href="#k" transform="matrix(1,0,0,1,1630,1672.5) translate(5.375 26.1)"/><use xlink:href="#l" transform="matrix(1,0,0,1,1630,1672.5) translate(54.625 26.1)"/><path d="M1798 1695h-33.62" stroke="#000" fill="none"/><path d="M1798.5 1695.47h-.5v-.94h.5z" stroke="#000" stroke-width=".05"/><path d="M1749.62 1695l14.26-4.63v9.27z" stroke="#000"/><path d="M1591.5 1695h-33.62" stroke="#000" fill="none"/><path d="M1592 1695l.05.47h-.56v-.94h.55z" stroke="#000" stroke-width=".05"/><path d="M1543.12 1695l14.26-4.63v9.27z" stroke="#000"/><path d="M1334.77 1522.94a10.67 10.67 0 0 1 10.46 0l69.54 39.12a3.38 3.38 0 0 1 0 5.88l-69.54 39.12a10.67 10.67 0 0 1-10.46 0l-69.54-39.12a3.38 3.38 0 0 1 0-5.88z" stroke="#000" stroke-width="3" fill="#fff"/><use xlink:href="#m" transform="matrix(1,0,0,1,1300,1542.5) translate(-0.9750000000000014 26.1)"/><path d="M1982 1695h77.75a12 12 0 0 1 12 12v41a12 12 0 0 0 12 12h61.87" stroke="#000" fill="none"/><path d="M1982 1695.47h-.5v-.94h.5z" stroke="#000" stroke-width=".05"/><path d="M2160.38 1760l-14.26 4.63v-9.27z" stroke="#000"/><path d="M2234.77 1717.94a10.67 10.67 0 0 1 10.46 0l69.54 39.12a3.38 3.38 0 0 1 0 5.88l-69.54 39.12a10.67 10.67 0 0 1-10.46 0l-69.54-39.12a3.38 3.38 0 0 1 0-5.88z" stroke="#000" stroke-width="3" fill="#fff"/><use xlink:href="#k" transform="matrix(1,0,0,1,2200,1737.5) translate(0.375 26.1)"/><use xlink:href="#n" transform="matrix(1,0,0,1,2200,1737.5) translate(49.625 26.1)"/><path d="M2234.77 1587.94a10.67 10.67 0 0 1 10.46 0l69.54 39.12a3.38 3.38 0 0 1 0 5.88l-69.54 39.12a10.67 10.67 0 0 1-10.46 0l-69.54-39.12a3.38 3.38 0 0 1 0-5.88z" stroke="#000" stroke-width="3" fill="#fff"/><use xlink:href="#o" transform="matrix(1,0,0,1,2200,1607.5) translate(12 26.1)"/><use xlink:href="#n" transform="matrix(1,0,0,1,2200,1607.5) translate(38 26.1)"/><path d="M2440 1675h180v40h-180z" stroke="#333" stroke-width="3" fill-opacity="0"/><use xlink:href="#p" transform="matrix(1,0,0,1,2460,1675) translate(26.525 14.4)"/><use xlink:href="#q" transform="matrix(1,0,0,1,2460,1675) translate(93.475 14.4)"/><use xlink:href="#r" transform="matrix(1,0,0,1,2460,1675) translate(44.099999999999994 36)"/><path d="M2318.5 1760h47.75a12 12 0 0 0 12-12v-36.5a12 12 0 0 1 12-12h31.87" stroke="#000" fill="none"/><path d="M2318.5 1760.47h-.55l.05-.47-.05-.47h.56z" stroke="#000" stroke-width=".05"/><path d="M2436.88 1699.5l-14.26 4.63v-9.27z" stroke="#000"/><path d="M2438 1695h-47.75a12 12 0 0 1-12-12v-41a12 12 0 0 0-12-12h-31.87" stroke="#000" fill="none"/><path d="M2438.5 1695.47h-.5v-.94h.5z" stroke="#000" stroke-width=".05"/><path d="M2319.62 1630l14.26-4.63v9.27z" stroke="#000"/><path d="M2161.5 1630h-77.75a12 12 0 0 0-12 12v41a12 12 0 0 1-12 12h-61.87" stroke="#000" fill="none"/><path d="M2162 1630l.05.47h-.56v-.94h.55z" stroke="#000" stroke-width=".05"/><path d="M1983.12 1695l14.26-4.63v9.27z" stroke="#000"/><path d="M1360 1765h180v40h-180z" stroke="#333" stroke-width="3" fill-opacity="0"/><use xlink:href="#s" transform="matrix(1,0,0,1,1380,1765) translate(18.074999999999996 23.6)"/><path d="M1591.5 1695h-12.75a12 12 0 0 0-12 12v69.13a8.87 8.87 0 0 1-8.87 8.87" stroke="#000" fill="none"/><path d="M1592 1695l.05.47h-.56v-.94h.55z" stroke="#000" stroke-width=".05"/><path d="M1543.12 1785l14.26-4.63v9.27z" stroke="#000"/><path d="M1884.77 2360.44a10.67 10.67 0 0 1 10.46 0l69.54 39.12a3.38 3.38 0 0 1 0 5.88l-69.54 39.12a10.67 10.67 0 0 1-10.46 0l-69.54-39.12a3.38 3.38 0 0 1 0-5.88z" stroke="#000" stroke-width="3" fill="#fff"/><use xlink:href="#t" transform="matrix(1,0,0,1,1850,2380) translate(22 15.299999999999999)"/><use xlink:href="#u" transform="matrix(1,0,0,1,1850,2380) translate(8.524999999999999 36.9)"/><path d="M1530 2130h180v40h-180z" stroke="#333" stroke-width="3" fill-opacity="0"/><use xlink:href="#v" transform="matrix(1,0,0,1,1550,2130) translate(13.074999999999996 23.6)"/><path d="M1890 2297v29.82a.22.22 0 0 0 .22.23.22.22 0 0 1 .22.22v13.94" stroke="#000" fill="none"/><path d="M1890.47 2297h-.94v-.5h.94z" stroke="#000" stroke-width=".05"/><path d="M1890.44 2355.97l-4.63-14.26h9.28z" stroke="#000"/><path d="M1890 2447.93v44.2" stroke="#000" fill="none"/><path d="M1890 2447.43l.47-.02v.54h-.94v-.53z" stroke="#000" stroke-width=".05"/><path d="M1890 2506.88l-4.63-14.26h9.27z" stroke="#000"/><path d="M1798 2530h-166a12 12 0 0 1-12-12v-61.7" stroke="#000" fill="none"/><path d="M1798.5 2530.47h-.5v-.94h.5z" stroke="#000" stroke-width=".05"/><path d="M1620 2441.55l4.63 14.26h-9.27z" stroke="#000"/><path d="M1620 2349.57v-161.7" stroke="#000" fill="none"/><path d="M1620.47 2350.1l-.47-.03-.47.02v-.54h.94z" stroke="#000" stroke-width=".05"/><path d="M1620 2173.12l4.63 14.26h-9.27z" stroke="#000"/><path d="M1444.88 1923.13a9.82 9.82 0 0 1 10.24 0l79.76 48.74a3.67 3.67 0 0 1 0 6.26l-79.76 48.74a9.82 9.82 0 0 1-10.24 0l-79.76-48.74a3.67 3.67 0 0 1 0-6.26z" stroke="#000" stroke-width="3" fill="#fff"/><use xlink:href="#w" transform="matrix(1,0,0,1,1405,1947.5) translate(29.525 14.4)"/><use xlink:href="#x" transform="matrix(1,0,0,1,1405,1947.5) translate(2.049999999999997 36)"/><use xlink:href="#y" transform="matrix(1,0,0,1,1405,1947.5) translate(35 57.6)"/><path d="M1670 1649.57v-19.28a12 12 0 0 0-12-12h-96a12 12 0 0 1-12-12v-3.42" stroke="#000" fill="none"/><path d="M1670.47 1650.1l-.47-.03-.47.02v-.54h.94z" stroke="#000" stroke-width=".05"/><path d="M1550 1588.12l4.63 14.26h-9.27z" stroke="#000"/><path d="M1458 1565h-23.62" stroke="#000" fill="none"/><path d="M1458.5 1565.47h-.5v-.94h.5z" stroke="#000" stroke-width=".05"/><path d="M1419.62 1565l14.26-4.63v9.27z" stroke="#000"/><path d="M1261.5 1565H1202a12 12 0 0 0-12 12v200.12" stroke="#000" fill="none"/><path d="M1262 1565l.05.47h-.56v-.94h.55z" stroke="#000" stroke-width=".05"/><path d="M1190 1791.88l-4.63-14.26h9.27z" stroke="#000"/><path d="M1190 1837v126a12 12 0 0 0 12 12h143.47" stroke="#000" fill="none"/><path d="M1190.47 1837h-.94v-.5h.94z" stroke="#000" stroke-width=".05"/><path d="M1360.24 1975l-14.27 4.63v-9.27z" stroke="#000"/><path d="M1614.77 2352.94a10.67 10.67 0 0 1 10.46 0l69.54 39.12a3.38 3.38 0 0 1 0 5.88l-69.54 39.12a10.67 10.67 0 0 1-10.46 0l-69.54-39.12a3.38 3.38 0 0 1 0-5.88z" stroke="#000" stroke-width="3" fill="#fff"/><g><use xlink:href="#t" transform="matrix(1,0,0,1,1580,2372.5) translate(22 15.299999999999999)"/><use xlink:href="#z" transform="matrix(1,0,0,1,1580,2372.5) translate(8.524999999999999 36.9)"/></g><path d="M1538.64 1975H1608a12 12 0 0 1 12 12v125.12" stroke="#000" fill="none"/><path d="M1538.66 1975.47h-.57l.04-.47-.05-.47h.56z" stroke="#000" stroke-width=".05"/><path d="M1620 2126.88l-4.63-14.26h9.27z" stroke="#000"/><path d="M1770 1843a8 8 0 0 1 8-8h224a8 8 0 0 1 8 8v44a8 8 0 0 1-8 8h-224a8 8 0 0 1-8-8z" fill="none"/><g><use xlink:href="#o" transform="matrix(1,0,0,1,1770,1835) translate(97 33.6)"/><use xlink:href="#l" transform="matrix(1,0,0,1,1770,1835) translate(123 33.6)"/></g><g><path d="M1941.16 1839.94a3.16 3.16 0 0 0-2.6-4.94h-98a3.16 3.16 0 0 0-2.6 4.94l48.2 70.12a4.13 4.13 0 0 0 6.8 0z" stroke="#5e5e5e" stroke-width="3" fill-opacity="0"/></g><defs><path d="M30-248c87 1 191-15 191 75 0 78-77 80-158 76V0H30v-248zm33 125c57 0 124 11 124-50 0-59-68-47-124-48v98" id="A"/><path d="M100-194c63 0 86 42 84 106H49c0 40 14 67 53 68 26 1 43-12 49-29l28 8c-11 28-37 45-77 45C44 4 14-33 15-96c1-61 26-98 85-98zm52 81c6-60-76-77-97-28-3 7-6 17-6 28h103" id="B"/><path d="M114-163C36-179 61-72 57 0H25l-1-190h30c1 12-1 29 2 39 6-27 23-49 58-41v29" id="C"/><path d="M135-143c-3-34-86-38-87 0 15 53 115 12 119 90S17 21 10-45l28-5c4 36 97 45 98 0-10-56-113-15-118-90-4-57 82-63 122-42 12 7 21 19 24 35" id="D"/><path d="M100-194c62-1 85 37 85 99 1 63-27 99-86 99S16-35 15-95c0-66 28-99 85-99zM99-20c44 1 53-31 53-75 0-43-8-75-51-75s-53 32-53 75 10 74 51 75" id="E"/><path d="M117-194c89-4 53 116 60 194h-32v-121c0-31-8-49-39-48C34-167 62-67 57 0H25l-1-190h30c1 10-1 24 2 32 11-22 29-35 61-36" id="F"/><path d="M141-36C126-15 110 5 73 4 37 3 15-17 15-53c-1-64 63-63 125-63 3-35-9-54-41-54-24 1-41 7-42 31l-33-3c5-37 33-52 76-52 45 0 72 20 72 64v82c-1 20 7 32 28 27v20c-31 9-61-2-59-35zM48-53c0 20 12 33 32 33 41-3 63-29 60-74-43 2-92-5-92 41" id="G"/><g id="a"><use transform="matrix(0.05,0,0,0.05,0,0)" xlink:href="#A"/><use transform="matrix(0.05,0,0,0.05,12,0)" xlink:href="#B"/><use transform="matrix(0.05,0,0,0.05,22,0)" xlink:href="#C"/><use transform="matrix(0.05,0,0,0.05,27.950000000000003,0)" xlink:href="#D"/><use transform="matrix(0.05,0,0,0.05,36.95,0)" xlink:href="#E"/><use transform="matrix(0.05,0,0,0.05,46.95,0)" xlink:href="#F"/><use transform="matrix(0.05,0,0,0.05,56.95,0)" xlink:href="#G"/></g><path d="M137 0h-34L2-248h35l83 218 83-218h36" id="H"/><path d="M106-169C34-169 62-67 57 0H25v-261h32l-1 103c12-21 28-36 61-36 89 0 53 116 60 194h-32v-121c2-32-8-49-39-48" id="I"/><path d="M34 0v-190h32V0H34zM24-211c8-23 27-35 38-54h36v5l-58 49H24" id="J"/><path d="M96-169c-40 0-48 33-48 73s9 75 48 75c24 0 41-14 43-38l32 2c-6 37-31 61-74 61-59 0-76-41-82-99-10-93 101-131 147-64 4 7 5 14 7 22l-32 3c-4-21-16-35-41-35" id="K"/><path d="M84 4C-5 8 30-112 23-190h32v120c0 31 7 50 39 49 72-2 45-101 50-169h31l1 190h-30c-1-10 1-25-2-33-11 22-28 36-60 37" id="L"/><path d="M24 0v-261h32V0H24" id="M"/><g id="b"><use transform="matrix(0.05,0,0,0.05,0,0)" xlink:href="#H"/><use transform="matrix(0.05,0,0,0.05,11,0)" xlink:href="#B"/><use transform="matrix(0.05,0,0,0.05,21,0)" xlink:href="#I"/><use transform="matrix(0.05,0,0,0.05,31,0)" xlink:href="#J"/><use transform="matrix(0.05,0,0,0.05,36,0)" xlink:href="#K"/><use transform="matrix(0.05,0,0,0.05,45,0)" xlink:href="#L"/><use transform="matrix(0.05,0,0,0.05,55,0)" xlink:href="#M"/><use transform="matrix(0.05,0,0,0.05,58.95,0)" xlink:href="#E"/></g><path d="M24-231v-30h32v30H24zM24 0v-190h32V0H24" id="N"/><path d="M108 0H70L1-190h34L89-25l56-165h34" id="O"/><path d="M85-194c31 0 48 13 60 33l-1-100h32l1 261h-30c-2-10 0-23-3-31C134-8 116 4 85 4 32 4 16-35 15-94c0-66 23-100 70-100zm9 24c-40 0-46 34-46 75 0 40 6 74 45 74 42 0 51-32 51-76 0-42-9-74-50-73" id="P"/><g id="c"><use transform="matrix(0.05,0,0,0.05,0,0)" xlink:href="#H"/><use transform="matrix(0.05,0,0,0.05,11.65,0)" xlink:href="#N"/><use transform="matrix(0.05,0,0,0.05,15.600000000000001,0)" xlink:href="#O"/><use transform="matrix(0.05,0,0,0.05,24.6,0)" xlink:href="#N"/><use transform="matrix(0.05,0,0,0.05,28.55,0)" xlink:href="#B"/><use transform="matrix(0.05,0,0,0.05,38.55,0)" xlink:href="#F"/><use transform="matrix(0.05,0,0,0.05,48.55,0)" xlink:href="#P"/><use transform="matrix(0.05,0,0,0.05,58.54999999999999,0)" xlink:href="#G"/></g><path d="M240 0l2-218c-23 76-54 145-80 218h-23L58-218 59 0H30v-248h44l77 211c21-75 51-140 76-211h43V0h-30" id="Q"/><path d="M115-194c55 1 70 41 70 98S169 2 115 4C84 4 66-9 55-30l1 105H24l-1-265h31l2 30c10-21 28-34 59-34zm-8 174c40 0 45-34 45-75s-6-73-45-74c-42 0-51 32-51 76 0 43 10 73 51 73" id="R"/><g id="d"><use transform="matrix(0.05,0,0,0.05,0,0)" xlink:href="#Q"/><use transform="matrix(0.05,0,0,0.05,14.950000000000001,0)" xlink:href="#L"/><use transform="matrix(0.05,0,0,0.05,24.950000000000003,0)" xlink:href="#F"/><use transform="matrix(0.05,0,0,0.05,34.95,0)" xlink:href="#N"/><use transform="matrix(0.05,0,0,0.05,38.900000000000006,0)" xlink:href="#K"/><use transform="matrix(0.05,0,0,0.05,47.900000000000006,0)" xlink:href="#N"/><use transform="matrix(0.05,0,0,0.05,51.85,0)" xlink:href="#R"/><use transform="matrix(0.05,0,0,0.05,61.85,0)" xlink:href="#N"/><use transform="matrix(0.05,0,0,0.05,65.80000000000001,0)" xlink:href="#E"/></g><path d="M127-220V0H93v-220H8v-28h204v28h-85" id="S"/><path d="M115-194c53 0 69 39 70 98 0 66-23 100-70 100C84 3 66-7 56-30L54 0H23l1-261h32v101c10-23 28-34 59-34zm-8 174c40 0 45-34 45-75 0-40-5-75-45-74-42 0-51 32-51 76 0 43 10 73 51 73" id="T"/><path d="M24-231v-30h32v30H24zM-9 49c24 4 33-6 33-30v-209h32V24c2 40-23 58-65 49V49" id="U"/><g id="e"><use transform="matrix(0.05,0,0,0.05,0,0)" xlink:href="#S"/><use transform="matrix(0.05,0,0,0.05,10.3,0)" xlink:href="#C"/><use transform="matrix(0.05,0,0,0.05,16.25,0)" xlink:href="#G"/><use transform="matrix(0.05,0,0,0.05,26.25,0)" xlink:href="#T"/><use transform="matrix(0.05,0,0,0.05,36.25,0)" xlink:href="#G"/><use transform="matrix(0.05,0,0,0.05,46.25,0)" xlink:href="#U"/><use transform="matrix(0.05,0,0,0.05,50.2,0)" xlink:href="#E"/></g><path d="M30 0v-248h187v28H63v79h144v27H63v87h162V0H30" id="V"/><path d="M210-169c-67 3-38 105-44 169h-31v-121c0-29-5-50-35-48C34-165 62-65 56 0H25l-1-190h30c1 10-1 24 2 32 10-44 99-50 107 0 11-21 27-35 58-36 85-2 47 119 55 194h-31v-121c0-29-5-49-35-48" id="W"/><g id="f"><use transform="matrix(0.05,0,0,0.05,0,0)" xlink:href="#V"/><use transform="matrix(0.05,0,0,0.05,12,0)" xlink:href="#W"/><use transform="matrix(0.05,0,0,0.05,26.950000000000003,0)" xlink:href="#R"/><use transform="matrix(0.05,0,0,0.05,36.95,0)" xlink:href="#C"/><use transform="matrix(0.05,0,0,0.05,42.900000000000006,0)" xlink:href="#B"/><use transform="matrix(0.05,0,0,0.05,52.900000000000006,0)" xlink:href="#D"/><use transform="matrix(0.05,0,0,0.05,61.900000000000006,0)" xlink:href="#G"/></g><g id="g"><use transform="matrix(0.05,0,0,0.05,0,0)" xlink:href="#H"/><use transform="matrix(0.05,0,0,0.05,11.65,0)" xlink:href="#N"/><use transform="matrix(0.05,0,0,0.05,15.600000000000001,0)" xlink:href="#O"/><use transform="matrix(0.05,0,0,0.05,24.6,0)" xlink:href="#B"/></g><g id="h"><use transform="matrix(0.05,0,0,0.05,0,0)" xlink:href="#B"/><use transform="matrix(0.05,0,0,0.05,10,0)" xlink:href="#F"/></g><path d="M30-248c118-7 216 8 213 122C240-48 200 0 122 0H30v-248zM63-27c89 8 146-16 146-99s-60-101-146-95v194" id="X"/><path d="M118-194c89-4 53 116 60 194h-32v-121c0-31-8-49-39-48C35-167 63-67 58 0H26l-1-190h30c1 10-1 24 2 32 11-22 29-35 61-36zm47-64c-3 23-9 48-36 47-26-1-65-44-74 0H39c4-23 8-48 36-47s64 44 74 0h16" id="Y"/><g id="i"><use transform="matrix(0.05,0,0,0.05,0,0)" xlink:href="#X"/><use transform="matrix(0.05,0,0,0.05,12.950000000000001,0)" xlink:href="#L"/><use transform="matrix(0.05,0,0,0.05,22.950000000000003,0)" xlink:href="#B"/><use transform="matrix(0.05,0,0,0.05,32.95,0)" xlink:href="#Y"/><use transform="matrix(0.05,0,0,0.05,42.95,0)" xlink:href="#E"/></g><path d="M33 0v-248h34V0H33" id="Z"/><path d="M145-31C134-9 116 4 85 4 32 4 16-35 15-94c0-59 17-99 70-100 32-1 48 14 60 33 0-11-1-24 2-32h30l-1 268h-32zM93-21c41 0 51-33 51-76s-8-73-50-73c-40 0-46 35-46 75s5 74 45 74" id="aa"/><g id="j"><use transform="matrix(0.05,0,0,0.05,0,0)" xlink:href="#Z"/><use transform="matrix(0.05,0,0,0.05,5,0)" xlink:href="#F"/><use transform="matrix(0.05,0,0,0.05,15,0)" xlink:href="#aa"/><use transform="matrix(0.05,0,0,0.05,25,0)" xlink:href="#L"/><use transform="matrix(0.05,0,0,0.05,35,0)" xlink:href="#N"/><use transform="matrix(0.05,0,0,0.05,38.95,0)" xlink:href="#M"/><use transform="matrix(0.05,0,0,0.05,42.900000000000006,0)" xlink:href="#N"/><use transform="matrix(0.05,0,0,0.05,46.85000000000001,0)" xlink:href="#F"/><use transform="matrix(0.05,0,0,0.05,56.85,0)" xlink:href="#E"/></g><g id="k"><use transform="matrix(0.05,0,0,0.05,0,0)" xlink:href="#S"/><use transform="matrix(0.05,0,0,0.05,10.3,0)" xlink:href="#N"/><use transform="matrix(0.05,0,0,0.05,14.25,0)" xlink:href="#B"/><use transform="matrix(0.05,0,0,0.05,24.25,0)" xlink:href="#F"/><use transform="matrix(0.05,0,0,0.05,34.25,0)" xlink:href="#B"/></g><g id="l"><use transform="matrix(0.05,0,0,0.05,0,0)" xlink:href="#L"/><use transform="matrix(0.05,0,0,0.05,10,0)" xlink:href="#F"/></g><path d="M59-47c-2 24 18 29 38 22v24C64 9 27 4 27-40v-127H5v-23h24l9-43h21v43h35v23H59v120" id="ab"/><g id="m"><use transform="matrix(0.05,0,0,0.05,0,0)" xlink:href="#A"/><use transform="matrix(0.05,0,0,0.05,12,0)" xlink:href="#B"/><use transform="matrix(0.05,0,0,0.05,22,0)" xlink:href="#C"/><use transform="matrix(0.05,0,0,0.05,27.950000000000003,0)" xlink:href="#ab"/><use transform="matrix(0.05,0,0,0.05,32.95,0)" xlink:href="#B"/><use transform="matrix(0.05,0,0,0.05,42.95,0)" xlink:href="#F"/><use transform="matrix(0.05,0,0,0.05,52.95,0)" xlink:href="#B"/><use transform="matrix(0.05,0,0,0.05,62.95,0)" xlink:href="#K"/><use transform="matrix(0.05,0,0,0.05,71.95,0)" xlink:href="#B"/></g><g id="n"><use transform="matrix(0.05,0,0,0.05,0,0)" xlink:href="#L"/><use transform="matrix(0.05,0,0,0.05,10,0)" xlink:href="#F"/><use transform="matrix(0.05,0,0,0.05,20,0)" xlink:href="#G"/></g><g id="o"><use transform="matrix(0.05,0,0,0.05,0,0)" xlink:href="#V"/><use transform="matrix(0.05,0,0,0.05,12,0)" xlink:href="#D"/></g><path d="M212-179c-10-28-35-45-73-45-59 0-87 40-87 99 0 60 29 101 89 101 43 0 62-24 78-52l27 14C228-24 195 4 139 4 59 4 22-46 18-125c-6-104 99-153 187-111 19 9 31 26 39 46" id="ac"/><path d="M9 0v-24l116-142H16v-24h144v24L44-24h123V0H9" id="ad"/><g id="p"><use transform="matrix(0.05,0,0,0.05,0,0)" xlink:href="#ac"/><use transform="matrix(0.05,0,0,0.05,12.950000000000001,0)" xlink:href="#G"/><use transform="matrix(0.05,0,0,0.05,22.950000000000003,0)" xlink:href="#T"/><use transform="matrix(0.05,0,0,0.05,32.95,0)" xlink:href="#B"/><use transform="matrix(0.05,0,0,0.05,42.95,0)" xlink:href="#ad"/><use transform="matrix(0.05,0,0,0.05,51.95,0)" xlink:href="#G"/></g><g id="q"><use transform="matrix(0.05,0,0,0.05,0,0)" xlink:href="#P"/><use transform="matrix(0.05,0,0,0.05,10,0)" xlink:href="#B"/></g><path d="M101-234c-31-9-42 10-38 44h38v23H63V0H32v-167H5v-23h27c-7-52 17-82 69-68v24" id="ae"/><g id="r"><use transform="matrix(0.05,0,0,0.05,0,0)" xlink:href="#ae"/><use transform="matrix(0.05,0,0,0.05,5,0)" xlink:href="#G"/><use transform="matrix(0.05,0,0,0.05,15,0)" xlink:href="#W"/><use transform="matrix(0.05,0,0,0.05,29.950000000000003,0)" xlink:href="#N"/><use transform="matrix(0.05,0,0,0.05,33.900000000000006,0)" xlink:href="#M"/><use transform="matrix(0.05,0,0,0.05,37.85000000000001,0)" xlink:href="#N"/><use transform="matrix(0.05,0,0,0.05,41.80000000000001,0)" xlink:href="#G"/></g><g id="s"><use transform="matrix(0.05,0,0,0.05,0,0)" xlink:href="#ac"/><use transform="matrix(0.05,0,0,0.05,12.950000000000001,0)" xlink:href="#E"/><use transform="matrix(0.05,0,0,0.05,22.950000000000003,0)" xlink:href="#W"/><use transform="matrix(0.05,0,0,0.05,37.900000000000006,0)" xlink:href="#R"/><use transform="matrix(0.05,0,0,0.05,47.900000000000006,0)" xlink:href="#G"/><use transform="matrix(0.05,0,0,0.05,57.900000000000006,0)" xlink:href="#C"/><use transform="matrix(0.05,0,0,0.05,63.85,0)" xlink:href="#B"/><use transform="matrix(0.05,0,0,0.05,73.85000000000001,0)" xlink:href="#F"/><use transform="matrix(0.05,0,0,0.05,83.85000000000001,0)" xlink:href="#P"/><use transform="matrix(0.05,0,0,0.05,93.85000000000001,0)" xlink:href="#E"/></g><g id="t"><use transform="matrix(0.05,0,0,0.05,0,0)" xlink:href="#V"/><use transform="matrix(0.05,0,0,0.05,12,0)" xlink:href="#D"/><use transform="matrix(0.05,0,0,0.05,21,0)" xlink:href="#ab"/><use transform="matrix(0.05,0,0,0.05,26,0)" xlink:href="#G"/></g><g id="u"><use transform="matrix(0.05,0,0,0.05,0,0)" xlink:href="#L"/><use transform="matrix(0.05,0,0,0.05,10,0)" xlink:href="#T"/><use transform="matrix(0.05,0,0,0.05,20,0)" xlink:href="#N"/><use transform="matrix(0.05,0,0,0.05,23.95,0)" xlink:href="#K"/><use transform="matrix(0.05,0,0,0.05,32.95,0)" xlink:href="#G"/><use transform="matrix(0.05,0,0,0.05,42.95,0)" xlink:href="#P"/><use transform="matrix(0.05,0,0,0.05,52.95,0)" xlink:href="#G"/></g><g id="v"><use transform="matrix(0.05,0,0,0.05,0,0)" xlink:href="#X"/><use transform="matrix(0.05,0,0,0.05,12.950000000000001,0)" xlink:href="#B"/><use transform="matrix(0.05,0,0,0.05,22.950000000000003,0)" xlink:href="#R"/><use transform="matrix(0.05,0,0,0.05,32.95,0)" xlink:href="#G"/><use transform="matrix(0.05,0,0,0.05,42.95,0)" xlink:href="#C"/><use transform="matrix(0.05,0,0,0.05,48.900000000000006,0)" xlink:href="#ab"/><use transform="matrix(0.05,0,0,0.05,53.900000000000006,0)" xlink:href="#G"/><use transform="matrix(0.05,0,0,0.05,63.900000000000006,0)" xlink:href="#W"/><use transform="matrix(0.05,0,0,0.05,78.85000000000001,0)" xlink:href="#B"/><use transform="matrix(0.05,0,0,0.05,88.85000000000001,0)" xlink:href="#F"/><use transform="matrix(0.05,0,0,0.05,98.85000000000001,0)" xlink:href="#ab"/><use transform="matrix(0.05,0,0,0.05,103.85000000000001,0)" xlink:href="#E"/></g><path d="M63-220v92h138v28H63V0H30v-248h175v28H63" id="af"/><g id="w"><use transform="matrix(0.05,0,0,0.05,0,0)" xlink:href="#af"/><use transform="matrix(0.05,0,0,0.05,10.950000000000001,0)" xlink:href="#L"/><use transform="matrix(0.05,0,0,0.05,20.950000000000003,0)" xlink:href="#B"/></g><g id="x"><use transform="matrix(0.05,0,0,0.05,0,0)" xlink:href="#K"/><use transform="matrix(0.05,0,0,0.05,9,0)" xlink:href="#E"/><use transform="matrix(0.05,0,0,0.05,19,0)" xlink:href="#F"/><use transform="matrix(0.05,0,0,0.05,29,0)" xlink:href="#D"/><use transform="matrix(0.05,0,0,0.05,38,0)" xlink:href="#ab"/><use transform="matrix(0.05,0,0,0.05,43,0)" xlink:href="#N"/><use transform="matrix(0.05,0,0,0.05,46.95,0)" xlink:href="#ab"/><use transform="matrix(0.05,0,0,0.05,51.95,0)" xlink:href="#L"/><use transform="matrix(0.05,0,0,0.05,61.95,0)" xlink:href="#N"/><use transform="matrix(0.05,0,0,0.05,65.9,0)" xlink:href="#P"/><use transform="matrix(0.05,0,0,0.05,75.9,0)" xlink:href="#G"/></g><g id="y"><use transform="matrix(0.05,0,0,0.05,0,0)" xlink:href="#B"/><use transform="matrix(0.05,0,0,0.05,10,0)" xlink:href="#F"/></g><g id="z"><use transform="matrix(0.05,0,0,0.05,0,0)" xlink:href="#L"/><use transform="matrix(0.05,0,0,0.05,10,0)" xlink:href="#T"/><use transform="matrix(0.05,0,0,0.05,20,0)" xlink:href="#N"/><use transform="matrix(0.05,0,0,0.05,23.95,0)" xlink:href="#K"/><use transform="matrix(0.05,0,0,0.05,32.95,0)" xlink:href="#G"/><use transform="matrix(0.05,0,0,0.05,42.95,0)" xlink:href="#P"/><use transform="matrix(0.05,0,0,0.05,52.95,0)" xlink:href="#E"/></g></defs></g></svg>